<?xml version="1.0" encoding="UTF-8"?>
<svg id="Capa_2" data-name="Capa 2" xmlns="http://www.w3.org/2000/svg" viewBox="0 0 1200.79 415.04">
  <g id="Capa_1-2" data-name="Capa 1">
    <path d="M667.9,178.19l-.05,166.94-36.22-.06-.21-160.4c0-4.65-1.54-9.91-3.86-13.21-7.53-10.75-31.26-3.38-39.08,6.9v166.75s-36.25-.14-36.25-.14l-.03-204.85,35.83-.07.64,13.43c13.95-14,32.43-18.57,51.42-14.84,10.06,1.98,18.88,7.24,24.23,16.35,6-4.72,11.07-9.45,17.6-12.41,15.41-6.99,33.73-7.13,48.67.25,11.3,5.58,16.88,15.57,17.72,27.91v174.18s-36.16.22-36.16.22l-.16-158.26c0-5.35-1.48-11.52-4.47-15.37-8.01-10.29-30.97-4.41-39.62,6.67Z"/>
    <path d="M323.57,332.28l-.02,82.75-36.73-.02.06-274.57,36.39-.38.62,12.32c16.01-19.53,52.43-20.07,68.54-1.03,5.98,7.07,9.61,16.72,9.62,26.52l.15,125.35c.01,9.94-3.1,18.82-7.68,27.06-14.71,22.38-52.76,23.33-70.95,1.98ZM366.11,296.28l-.09-108.79c0-9.5-3.01-19.37-13.59-21.23s-22.03,2.46-29.06,11.07l.03,130.81c7.09,7.88,16.94,12.18,27.31,10.64,11.99-1.78,15.4-10.88,15.39-22.51Z"/>
    <path d="M421.96,253.11c4.82-9.52,13.51-16.28,23.23-20l52.33-19.98-.25-30.71c-.04-4.99-1.95-11.55-6.24-14.44-8.57-5.78-20.96-5.65-29.22.72-3.53,2.72-5.3,9.12-5.37,13.49l-.41,24.65-35-.02c-.25-11.62-.43-22.49,1.07-33.91,2-15.33,12.43-27.19,27.46-31.72,21.71-6.55,61.68-6.76,75.94,15.23,4.53,6.99,7.46,15.88,7.47,24.65l.12,163.94-33,.15-.67-17.27c-6.54,7.43-12.3,13.83-21.59,16.85-11.88,3.86-24.72,3.99-36.67.05-12.96-4.28-21.53-15.41-23.05-29.11-1.3-11.69-.76-23.29-.81-35.33-.04-9.17.23-18.47,4.67-27.23ZM468.55,318.64c11.46.34,21.67-5.55,29.01-14.12l.02-62.95-32.11,12.61c-7.62,2.99-11.54,10.03-12.51,17.72,1.66,16.04-6.95,46.08,15.6,46.74Z"/>
    <path d="M232.67,302.16l.47-21.75,34.24-.05c.08,9.16.18,17.55-.35,26.37-1.09,18.29-12.28,33.02-30.33,37.96-16.15,4.42-33.73,4.38-50-.45-17.95-5.33-30.26-20.87-30.29-40.03l-.19-121.77c-.01-8.5,2.55-16.87,6.51-23.84,5.76-10.14,15.91-16.19,27.17-18.74,22.15-5.02,57.72-4.58,71.31,17.78,3.14,7.03,6.23,14.59,6.22,22.74l-.13,69.51-75.82.06.07,51.39c.46,5.51,1.89,10.38,5.33,14.72,9.01,6.08,21.43,7,30.45,0,3.41-2.65,5.24-9.2,5.34-13.89ZM232.68,222.86l-.02-42.54c-.89-5.61-2.63-10.73-7.23-13.96-9.03-4.26-19.21-4.08-28.03.95-3.59,3.89-5.81,9.39-5.82,15.01l-.06,40.82,41.16-.28Z"/>
    <path d="M898.29,279.51l33.68.04c-.08,9.76.07,18.4-.52,27.69-1.14,17.92-11.95,32.35-29.26,37.15-23.43,6.49-61.3,5.11-73.88-19.69-3.78-7.45-5.49-15.8-5.48-24.43l.13-117.6c0-8.11,2.22-16.3,5.78-23.22,12.35-23.98,49.99-24.81,72.65-19.35,17.14,4.65,30,18.04,30.08,36.43l.32,73.37h-74.18s-.09,51.4-.09,51.4c.66,5.31,1.88,9.89,4.91,14.14,8.8,6.58,21,7.69,29.98.73,3.95-3.06,4.7-8.81,5.66-13.53l.23-23.14ZM897.93,222.86l-.06-42.57c-.86-5.83-2.83-11.31-7.63-14.59-8.16-3.4-16.94-3.1-25.14.43-4.13,3.27-7.34,8.59-7.36,14.33l-.13,42.61,40.32-.21Z"/>
    <path d="M1056.32,311.01c-6.99,38.58-53.62,41.34-82.35,33.04-17.86-5.16-28.93-20.06-29.21-38.28l-.45-29.65,33.78-.08.55,25.33c.13,5.82,2.77,12.06,7.64,15.11,9.06,5.69,20.8,5.42,29.59-.65,9.83-6.79,8.66-31.19,2.03-42.07-12.26-20.11-60.12-34.48-69.86-66.07-3.87-12.56-3.7-25.73-.81-38.55,3.07-13.62,13.07-24.43,26.7-28.2,17.82-4.93,36.92-5.32,54.32.37,16.19,5.3,26.36,19.14,26.61,35.82l.38,25.67-32.46-.09-.39-20.36c-.1-5.04-2.44-11.33-6.13-14.49-5.76-4.93-13.45-4.73-20.31-4.07-8.65.83-13.93,6.37-15.48,14.65-2.26,12.15.99,24.16,10.84,32.13,8.21,6.65,16.79,12.36,25.59,18.41,17.63,12.12,36.71,25.3,39.77,48.09,1.52,11.34,1.66,22.76-.36,33.91Z"/>
    <polygon points="110.89 358.41 47.45 309.53 .05 273.25 0 238.45 110.81 139.15 111.14 195.51 42.75 253.32 110.93 305.46 110.89 358.41"/>
    <polygon points="1090.58 358.74 1090.46 305.48 1159.66 252.45 1090.36 195.36 1090.69 138.81 1200.79 238.22 1200.69 273.14 1090.58 358.74"/>
    <rect x="768.89" y="139.92" width="36.74" height="205.33"/>
    <polygon points="622.1 64.25 607.73 64.51 607.32 38.92 579.58 38.87 579.55 64.41 565.02 64.46 565.11 .2 579.42 0 579.76 26 607.39 25.94 607.51 .16 621.91 .18 622.1 64.25"/>
    <polygon points="687.26 38.47 656.79 38.61 656.89 51.93 691.74 52.04 691.63 64.5 642.12 64.56 642.09 .13 691.08 .16 690.95 12.77 656.88 12.98 656.82 26.13 687.07 26.26 687.26 38.47"/>
    <rect x="766.2" y="84.9" width="42.42" height="36.7" transform="translate(683.55 890.58) rotate(-89.95)"/>
    <path d="M529.84,63.79c-4.49.85-9.2.79-14.76.61V13.14s-20.08-.12-20.08-.12l-.17-12.82,54.34-.08.39,12.89-19.78.14.06,50.63Z"/>
  </g>
</svg>